<svg width="742" height="461" viewBox="0 0 742 461" fill="none" xmlns="http://www.w3.org/2000/svg">
<mask id="mask0_115_470" style="mask-type:luminance" maskUnits="userSpaceOnUse" x="0" y="0" width="742" height="461">
<path d="M63.5272 0.476024C63.5272 0.476024 186.14 46.3707 391.64 46.3707C391.64 46.3707 397.678 51.1653 398.448 51.2947C398.79 51.352 400.55 51.3067 402.525 51.2627C404.998 51.208 407.809 51.152 408.594 51.2947C410.007 51.552 425.291 57.0734 429.658 61.4414C432.321 64.104 437.562 63.1853 441.742 62.2667C444.418 61.6787 446.659 61.0907 447.511 61.4414C449.694 62.34 453.418 63.2387 453.803 64.78C454.188 66.3214 435.438 81.092 435.438 82.248C435.438 82.88 437.247 82.628 439.095 82.3747C440.623 82.1654 442.177 81.9574 442.758 82.248C444.043 82.8894 445.842 88.9267 450.592 86.872C455.346 84.816 469.602 71.972 473.711 73.6427C477.822 75.312 476.409 82.504 478.721 83.7893C481.033 85.0733 487.711 90.2107 487.711 92.2653C487.711 94.3213 487.967 107.421 484.628 113.587C481.29 119.751 483.344 119.237 484.886 121.807C486.427 124.375 486.427 134.136 484.886 137.732C483.344 141.329 483.087 155.971 483.858 161.365C484.628 166.759 489.51 174.209 495.161 173.439C500.811 172.667 506.206 153.401 504.922 149.805C503.637 146.209 499.527 139.275 499.271 134.136C499.014 128.999 502.867 115.384 506.463 111.531C510.059 107.679 513.655 107.935 515.711 106.137C517.766 104.339 519.05 101 523.417 101C527.785 101 536.774 105.367 537.031 110.248C537.289 115.128 540.114 121.549 533.435 126.944C526.756 132.339 533.515 132.339 537.843 129.769C542.169 127.2 546.279 123.861 547.306 126.944C548.334 130.027 556.81 143.897 555.012 147.237C553.214 150.576 548.847 154.687 548.59 156.227C548.334 157.769 544.223 166.245 544.48 167.787C544.738 169.328 559.123 173.181 567.084 169.071C575.048 164.961 583.783 151.86 587.635 150.576C591.488 149.292 599.453 140.557 599.966 139.531C600.479 138.503 599.966 130.283 599.966 129.256C599.966 128.228 611.267 126.687 613.58 126.944C615.891 127.2 626.423 123.091 628.993 121.807C631.561 120.523 627.451 110.504 628.993 109.476C630.533 108.449 639.267 93.8067 641.066 92.78C642.863 91.752 682.679 84.56 684.477 82.248C686.275 79.936 685.76 76.8533 687.302 75.0547C688.844 73.2573 695.779 69.66 695.779 67.092C695.779 64.524 699.375 37.2947 702.715 36.5253C706.054 35.7533 710.935 29.332 714.531 29.332C718.129 29.332 724.04 36.268 724.8 40.3774C725.574 44.488 727.374 53.992 728.921 56.8173C730.454 59.6427 739.187 62.468 740.214 65.2947C741.24 68.12 742.534 74.5413 740.214 76.8533C737.907 79.1653 725.827 82.248 725.574 84.56C725.32 86.872 716.843 97.404 715.3 99.2013C713.76 101 706.568 108.192 705.54 110.761C704.514 113.329 706.824 120.265 706.824 122.835C706.824 125.403 708.11 135.164 705.284 139.017C702.458 142.871 699.631 151.347 693.467 152.631C687.302 153.916 676.514 159.567 675.23 161.108C673.944 162.649 674.202 169.328 674.202 174.723C674.202 180.116 670.862 195.273 667.522 196.3C664.185 197.327 661.358 197.584 661.102 198.868C660.844 200.153 656.649 198.525 656.393 197.755C656.135 196.985 653.052 186.539 652.024 186.453C650.998 186.367 645.347 198.269 643.805 198.269C642.265 198.269 647.145 208.716 647.571 211.969C648.001 215.223 652.71 220.788 652.282 223.7C651.854 226.611 651.083 234.147 652.966 235.859C654.851 237.571 659.988 237.228 660.674 238.771C661.358 240.311 661.186 247.76 662.728 249.301C664.27 250.843 668.722 260.091 667.694 261.803C666.667 263.515 663.242 266.427 662.043 266.427C660.845 266.427 657.59 265.741 656.906 266.427C656.22 267.111 655.364 269.165 657.59 271.564C659.816 273.961 657.762 279.612 655.878 280.469C653.994 281.324 645.603 284.751 644.405 289.032C643.206 293.313 635.157 298.279 632.931 299.477C630.705 300.676 623.513 308.896 622.827 311.465C622.142 314.033 616.491 322.425 614.779 323.967C613.066 325.507 604.503 326.535 604.333 327.391C604.161 328.248 605.872 334.412 604.675 335.953C603.475 337.495 596.97 357.873 596.798 364.895C596.626 371.916 616.491 395.548 617.005 397.089C617.518 398.631 619.574 410.105 621.97 414.044C624.368 417.983 630.704 428.771 630.362 433.222C630.02 437.676 631.218 446.58 629.506 450.863C627.794 455.143 617.004 459.253 615.634 458.396C614.264 457.541 612.038 447.779 609.983 446.409C607.929 445.04 604.503 446.067 603.134 442.471C601.763 438.875 598.68 430.312 597.824 429.456C596.97 428.6 587.207 426.031 586.693 422.776C586.181 419.522 589.434 417.468 586.693 412.502C583.954 407.536 581.214 401.2 581.214 394.864C581.214 388.527 570.939 389.555 569.74 386.987C568.54 384.417 560.835 376.027 558.266 376.197C555.697 376.368 545.079 386.644 541.483 386.129C537.887 385.616 534.632 380.479 533.606 379.964C532.579 379.451 508.946 371.916 505.863 373.115C502.782 374.313 496.617 377.396 493.877 377.396C491.137 377.396 478.122 380.479 474.525 380.651C473.278 380.709 471.535 380.419 469.678 380.128C466.181 379.58 462.273 379.032 460.483 380.821C457.742 383.56 463.566 385.103 465.107 384.588C466.647 384.075 470.074 383.732 470.586 384.245C471.101 384.76 470.758 389.041 471.271 390.753C471.786 392.465 480.348 397.261 480.691 399.145C480.867 400.117 479.72 399.629 478.218 399.141C476.807 398.684 475.083 398.227 473.84 398.973C471.271 400.515 462.881 402.227 457.742 402.227C452.606 402.227 442.502 395.035 440.447 392.808C438.393 390.583 433.254 392.123 431.37 394.349C429.487 396.576 418.698 393.665 410.306 392.465C401.915 391.268 391.299 398.803 389.586 402.569C387.873 406.336 383.934 410.789 379.995 412.16C378.026 412.844 375.286 412.802 372.91 412.759C370.534 412.716 368.522 412.673 368.009 413.359C366.981 414.728 362.527 422.776 360.302 423.804C358.076 424.832 352.854 429.028 352.082 433.393C351.311 437.761 353.366 457.284 355.679 459.852C357.99 462.421 347.459 458.312 344.375 455.743C341.294 453.173 329.221 455.743 326.137 451.632C323.055 447.522 319.973 429.284 317.661 427.486C315.35 425.688 306.615 416.697 304.304 413.872C301.991 411.047 305.074 411.817 300.965 404.111C296.854 396.404 289.662 388.184 287.092 387.928C284.523 387.671 275.019 385.873 270.909 387.671C266.799 389.469 266.029 401.799 259.863 401.028C253.699 400.257 238.543 385.616 238.287 383.304C238.03 380.992 239.058 369.176 238.03 367.635C237.003 366.093 222.104 355.819 220.048 352.993C217.994 350.167 214.911 344.773 214.911 344.773C214.911 344.773 190.764 341.947 189.738 341.947C188.71 341.947 189.48 351.195 188.454 351.195C187.426 351.195 145.813 345.029 144.014 343.745C142.217 342.461 94.4378 311.636 94.4378 311.636C94.4378 311.636 62.0712 306.241 61.3005 306.241C60.5299 306.241 62.3285 293.397 61.3005 292.628C60.2725 291.857 48.7139 281.839 48.4579 281.068C48.2005 280.297 47.1725 273.363 46.1445 272.848C45.1179 272.335 23.0258 258.207 22.2565 256.665C21.4858 255.124 20.9712 243.564 20.9712 241.509C20.9712 239.455 10.6965 219.419 10.9538 217.62C11.2112 215.823 14.8059 211.969 14.8059 210.685C14.8059 209.4 6.32985 205.033 8.12852 200.411C9.92585 195.785 10.4405 190.392 10.4405 190.392C10.4405 190.392 5.81652 189.364 5.30319 187.053C4.78852 184.74 5.81652 179.347 5.30319 178.061C4.78852 176.777 2.73384 171.64 2.22051 169.841C1.70584 168.044 4.01784 152.888 4.01784 152.888C4.01784 152.888 0.421875 140.557 0.421875 138.76C0.421875 136.961 10.6965 121.036 10.4405 119.751C10.1832 118.467 8.89787 94.064 11.9805 90.9814C15.0632 87.8987 25.3379 73.2573 27.1365 67.092C28.9352 60.928 37.9259 40.6347 38.4392 34.4693C38.9525 28.304 37.1552 5.69869 38.6952 1.84669C40.2365 -2.00664 54.1085 9.03867 55.9072 9.552C57.7045 10.0667 60.7872 14.4334 60.0165 15.9747C59.2459 17.516 57.4472 22.9107 60.7872 22.1387C64.1272 21.368 66.1819 11.864 64.8965 10.58C63.6125 9.29469 63.5272 0.476024 63.5272 0.476024Z" fill="white"/>
</mask>
<g mask="url(#mask0_115_470)">
<path d="M789.854 498.045H-1.57031V-7.00797H789.854V498.045Z" fill="#EF303F"/>
<path d="M789.854 70.692H-1.57031V31.8427H789.854V70.692Z" fill="white"/>
<path d="M789.854 148.392H-1.57031V109.543H789.854V148.392Z" fill="white"/>
<path d="M789.854 226.093H-1.57031V187.243H789.854V226.093Z" fill="white"/>
<path d="M789.854 303.793H-1.57031V264.943H789.854V303.793Z" fill="white"/>
<path d="M789.854 381.495H-1.57031V342.644H789.854V381.495Z" fill="white"/>
<path d="M789.854 459.195H-1.57031V420.344H789.854V459.195Z" fill="white"/>
<path d="M-1.57031 264.997H354.008V-7.00796H-1.57031V264.997Z" fill="#2A3D87"/>
<path d="M325.474 8.10538L328.762 17.196L338.425 17.5147L330.795 23.452L333.478 32.7387L325.474 27.3174L317.47 32.7387L320.153 23.452L312.523 17.5147L322.185 17.196L325.474 8.10538Z" fill="white"/>
<path d="M265.777 8.10538L269.067 17.196L278.728 17.5147L271.099 23.452L273.781 32.7387L265.777 27.3174L257.773 32.7387L260.457 23.452L252.828 17.5147L262.489 17.196L265.777 8.10538Z" fill="white"/>
<path d="M206.068 8.10538L209.356 17.196L219.019 17.5147L211.388 23.452L214.072 32.7387L206.068 27.3174L198.064 32.7387L200.747 23.452L193.117 17.5147L202.779 17.196L206.068 8.10538Z" fill="white"/>
<path d="M146.365 8.10538L149.653 17.196L159.314 17.5147L151.686 23.452L154.369 32.7387L146.365 27.3174L138.361 32.7387L141.043 23.452L133.414 17.5147L143.075 17.196L146.365 8.10538Z" fill="white"/>
<path d="M86.6603 8.10538L89.9496 17.196L99.6109 17.5147L91.9816 23.452L94.6643 32.7387L86.6603 27.3174L78.6576 32.7387L81.3402 23.452L73.7109 17.5147L83.3723 17.196L86.6603 8.10538Z" fill="white"/>
<path d="M26.9585 8.10538L30.2465 17.196L39.9078 17.5147L32.2785 23.452L34.9625 32.7387L26.9585 27.3174L18.9545 32.7387L21.6372 23.452L14.0078 17.5147L23.6691 17.196L26.9585 8.10538Z" fill="white"/>
<path d="M295.505 35.2494L298.795 44.34L308.456 44.6587L300.827 50.5947L303.509 59.8827L295.505 54.4614L287.501 59.8827L290.185 50.5947L282.555 44.6587L292.217 44.34L295.505 35.2494Z" fill="white"/>
<path d="M235.801 35.2494L239.089 44.34L248.75 44.6587L241.122 50.5947L243.805 59.8827L235.801 54.4614L227.798 59.8827L230.48 50.5947L222.852 44.6587L232.513 44.34L235.801 35.2494Z" fill="white"/>
<path d="M176.098 35.2494L179.387 44.34L189.048 44.6587L181.419 50.5947L184.102 59.8827L176.098 54.4614L168.095 59.8827L170.778 50.5947L163.148 44.6587L172.81 44.34L176.098 35.2494Z" fill="white"/>
<path d="M116.396 35.2494L119.684 44.34L129.347 44.6587L121.716 50.5947L124.4 59.8827L116.396 54.4614L108.392 59.8827L111.076 50.5947L103.445 44.6587L113.107 44.34L116.396 35.2494Z" fill="white"/>
<path d="M56.6915 35.2494L59.9795 44.34L69.6422 44.6587L62.0128 50.5947L64.6955 59.8827L56.6915 54.4614L48.6875 59.8827L51.3702 50.5947L43.7422 44.6587L53.4035 44.34L56.6915 35.2494Z" fill="white"/>
<path d="M325.474 225.251L328.762 234.341L338.425 234.66L330.795 240.597L333.478 249.884L325.474 244.463L317.47 249.884L320.153 240.597L312.523 234.66L322.185 234.341L325.474 225.251Z" fill="white"/>
<path d="M265.777 225.251L269.067 234.341L278.728 234.66L271.099 240.597L273.781 249.884L265.777 244.463L257.773 249.884L260.457 240.597L252.828 234.66L262.489 234.341L265.777 225.251Z" fill="white"/>
<path d="M206.068 225.251L209.356 234.341L219.019 234.66L211.388 240.597L214.072 249.884L206.068 244.463L198.064 249.884L200.747 240.597L193.117 234.66L202.779 234.341L206.068 225.251Z" fill="white"/>
<path d="M146.365 225.251L149.653 234.341L159.314 234.66L151.686 240.597L154.369 249.884L146.365 244.463L138.361 249.884L141.043 240.597L133.414 234.66L143.075 234.341L146.365 225.251Z" fill="white"/>
<path d="M86.6603 225.251L89.9496 234.341L99.6109 234.66L91.9816 240.597L94.6643 249.884L86.6603 244.463L78.6576 249.884L81.3402 240.597L73.7109 234.66L83.3723 234.341L86.6603 225.251Z" fill="white"/>
<path d="M26.9585 225.251L30.2465 234.341L39.9078 234.66L32.2785 240.597L34.9625 249.884L26.9585 244.463L18.9545 249.884L21.6372 240.597L14.0078 234.66L23.6691 234.341L26.9585 225.251Z" fill="white"/>
<path d="M325.474 62.392L328.762 71.4827L338.425 71.8013L330.795 77.7373L333.478 87.0253L325.474 81.604L317.47 87.0253L320.153 77.7373L312.523 71.8013L322.185 71.4827L325.474 62.392Z" fill="white"/>
<path d="M265.777 62.392L269.067 71.4827L278.728 71.8013L271.099 77.7373L273.781 87.0253L265.777 81.604L257.773 87.0253L260.457 77.7373L252.828 71.8013L262.489 71.4827L265.777 62.392Z" fill="white"/>
<path d="M206.068 62.392L209.356 71.4827L219.019 71.8013L211.388 77.7373L214.072 87.0253L206.068 81.604L198.064 87.0253L200.747 77.7373L193.117 71.8013L202.779 71.4827L206.068 62.392Z" fill="white"/>
<path d="M146.365 62.392L149.653 71.4827L159.314 71.8013L151.686 77.7373L154.369 87.0253L146.365 81.604L138.361 87.0253L141.043 77.7373L133.414 71.8013L143.075 71.4827L146.365 62.392Z" fill="white"/>
<path d="M86.6603 62.392L89.9496 71.4827L99.6109 71.8013L91.9816 77.7373L94.6643 87.0253L86.6603 81.604L78.6576 87.0253L81.3402 77.7373L73.7109 71.8013L83.3723 71.4827L86.6603 62.392Z" fill="white"/>
<path d="M26.9585 62.392L30.2465 71.4827L39.9078 71.8013L32.2785 77.7373L34.9625 87.0253L26.9585 81.604L18.9545 87.0253L21.6372 77.7373L14.0078 71.8013L23.6691 71.4827L26.9585 62.392Z" fill="white"/>
<path d="M295.505 89.536L298.795 98.6267L308.456 98.944L300.827 104.881L303.509 114.168L295.505 108.747L287.501 114.168L290.185 104.881L282.555 98.944L292.217 98.6267L295.505 89.536Z" fill="white"/>
<path d="M235.801 89.536L239.089 98.6267L248.75 98.944L241.122 104.881L243.805 114.168L235.801 108.747L227.798 114.168L230.48 104.881L222.852 98.944L232.513 98.6267L235.801 89.536Z" fill="white"/>
<path d="M176.098 89.536L179.387 98.6267L189.048 98.944L181.419 104.881L184.102 114.168L176.098 108.747L168.095 114.168L170.778 104.881L163.148 98.944L172.81 98.6267L176.098 89.536Z" fill="white"/>
<path d="M116.396 89.536L119.684 98.6267L129.347 98.944L121.716 104.881L124.4 114.168L116.396 108.747L108.392 114.168L111.076 104.881L103.445 98.944L113.107 98.6267L116.396 89.536Z" fill="white"/>
<path d="M56.6915 89.536L59.9795 98.6267L69.6422 98.944L62.0128 104.881L64.6955 114.168L56.6915 108.747L48.6875 114.168L51.3702 104.881L43.7422 98.944L53.4035 98.6267L56.6915 89.536Z" fill="white"/>
<path d="M325.474 116.679L328.762 125.769L338.425 126.088L330.795 132.024L333.478 141.311L325.474 135.889L317.47 141.311L320.153 132.024L312.523 126.088L322.185 125.769L325.474 116.679Z" fill="white"/>
<path d="M265.777 116.679L269.067 125.769L278.728 126.088L271.099 132.024L273.781 141.311L265.777 135.889L257.773 141.311L260.457 132.024L252.828 126.088L262.489 125.769L265.777 116.679Z" fill="white"/>
<path d="M206.068 116.679L209.356 125.769L219.019 126.088L211.388 132.024L214.072 141.311L206.068 135.889L198.064 141.311L200.747 132.024L193.117 126.088L202.779 125.769L206.068 116.679Z" fill="white"/>
<path d="M146.365 116.679L149.653 125.769L159.314 126.088L151.686 132.024L154.369 141.311L146.365 135.889L138.361 141.311L141.043 132.024L133.414 126.088L143.075 125.769L146.365 116.679Z" fill="white"/>
<path d="M86.6603 116.679L89.9496 125.769L99.6109 126.088L91.9816 132.024L94.6643 141.311L86.6603 135.889L78.6576 141.311L81.3402 132.024L73.7109 126.088L83.3723 125.769L86.6603 116.679Z" fill="white"/>
<path d="M26.9585 116.679L30.2465 125.769L39.9078 126.088L32.2785 132.024L34.9625 141.311L26.9585 135.889L18.9545 141.311L21.6372 132.024L14.0078 126.088L23.6691 125.769L26.9585 116.679Z" fill="white"/>
<path d="M295.505 143.821L298.795 152.912L308.456 153.231L300.827 159.167L303.509 168.455L295.505 163.033L287.501 168.455L290.185 159.167L282.555 153.231L292.217 152.912L295.505 143.821Z" fill="white"/>
<path d="M235.801 143.821L239.089 152.912L248.75 153.231L241.122 159.167L243.805 168.455L235.801 163.033L227.798 168.455L230.48 159.167L222.852 153.231L232.513 152.912L235.801 143.821Z" fill="white"/>
<path d="M176.098 143.821L179.387 152.912L189.048 153.231L181.419 159.167L184.102 168.455L176.098 163.033L168.095 168.455L170.778 159.167L163.148 153.231L172.81 152.912L176.098 143.821Z" fill="white"/>
<path d="M116.396 143.821L119.684 152.912L129.347 153.231L121.716 159.167L124.4 168.455L116.396 163.033L108.392 168.455L111.076 159.167L103.445 153.231L113.107 152.912L116.396 143.821Z" fill="white"/>
<path d="M56.6915 143.821L59.9795 152.912L69.6422 153.231L62.0128 159.167L64.6955 168.455L56.6915 163.033L48.6875 168.455L51.3702 159.167L43.7422 153.231L53.4035 152.912L56.6915 143.821Z" fill="white"/>
<path d="M325.474 170.965L328.762 180.055L338.425 180.373L330.795 186.311L333.478 195.597L325.474 190.176L317.47 195.597L320.153 186.311L312.523 180.373L322.185 180.055L325.474 170.965Z" fill="white"/>
<path d="M265.777 170.965L269.067 180.055L278.728 180.373L271.099 186.311L273.781 195.597L265.777 190.176L257.773 195.597L260.457 186.311L252.828 180.373L262.489 180.055L265.777 170.965Z" fill="white"/>
<path d="M206.068 170.965L209.356 180.055L219.019 180.373L211.388 186.311L214.072 195.597L206.068 190.176L198.064 195.597L200.747 186.311L193.117 180.373L202.779 180.055L206.068 170.965Z" fill="white"/>
<path d="M146.365 170.965L149.653 180.055L159.314 180.373L151.686 186.311L154.369 195.597L146.365 190.176L138.361 195.597L141.043 186.311L133.414 180.373L143.075 180.055L146.365 170.965Z" fill="white"/>
<path d="M86.6603 170.965L89.9496 180.055L99.6109 180.373L91.9816 186.311L94.6643 195.597L86.6603 190.176L78.6576 195.597L81.3402 186.311L73.7109 180.373L83.3723 180.055L86.6603 170.965Z" fill="white"/>
<path d="M26.9585 170.965L30.2465 180.055L39.9078 180.373L32.2785 186.311L34.9625 195.597L26.9585 190.176L18.9545 195.597L21.6372 186.311L14.0078 180.373L23.6691 180.055L26.9585 170.965Z" fill="white"/>
<path d="M295.505 198.108L298.795 207.199L308.456 207.517L300.827 213.453L303.509 222.741L295.505 217.32L287.501 222.741L290.185 213.453L282.555 207.517L292.217 207.199L295.505 198.108Z" fill="white"/>
<path d="M235.801 198.108L239.089 207.199L248.75 207.517L241.122 213.453L243.805 222.741L235.801 217.32L227.798 222.741L230.48 213.453L222.852 207.517L232.513 207.199L235.801 198.108Z" fill="white"/>
<path d="M176.098 198.108L179.387 207.199L189.048 207.517L181.419 213.453L184.102 222.741L176.098 217.32L168.095 222.741L170.778 213.453L163.148 207.517L172.81 207.199L176.098 198.108Z" fill="white"/>
<path d="M116.396 198.108L119.684 207.199L129.347 207.517L121.716 213.453L124.4 222.741L116.396 217.32L108.392 222.741L111.076 213.453L103.445 207.517L113.107 207.199L116.396 198.108Z" fill="white"/>
<path d="M56.6915 198.108L59.9795 207.199L69.6422 207.517L62.0128 213.453L64.6955 222.741L56.6915 217.32L48.6875 222.741L51.3702 213.453L43.7422 207.517L53.4035 207.199L56.6915 198.108Z" fill="white"/>
<path d="M467.307 23.8081L469.589 31.2761L476.967 33.8734L469.485 36.1534L466.885 43.5174L464.603 36.0494L457.227 33.452L464.707 31.1721L467.307 23.8081Z" fill="white"/>
<path d="M519.522 409.161L522.353 418.42L531.495 421.64L522.223 424.465L518.999 433.595L516.169 424.336L507.023 421.116L516.298 418.291L519.522 409.161Z" fill="white"/>
<path d="M98.5314 346.472L101.15 355.04L109.611 358.017L101.031 360.633L98.0487 369.08L95.4287 360.513L86.9688 357.535L95.5487 354.92L98.5314 346.472Z" fill="white"/>
<path d="M694.24 244.78L696.298 251.511L702.946 253.851L696.204 255.905L693.86 262.541L691.803 255.811L685.156 253.471L691.898 251.416L694.24 244.78Z" fill="white"/>
<path d="M218.133 -13.7867L220.219 -6.9627L226.959 -4.5907L220.125 -2.50665L217.747 4.22131L215.662 -2.60268L208.922 -4.97598L215.757 -7.05867L218.133 -13.7867Z" fill="white"/>
<path d="M624.988 18.0613L628.246 30.6694L640.828 34.0293L629.845 41.0253L630.536 54.028L620.489 45.7454L608.336 50.4213L613.109 38.3054L604.906 28.192L617.905 28.988L624.988 18.0613Z" fill="white"/>
<path d="M163.718 409.161L170.797 418.552L182.454 417.004L175.71 426.639L180.785 437.248L169.538 433.81L161.017 441.915L160.809 430.157L150.469 424.556L161.586 420.725L163.718 409.161Z" fill="white"/>
<path d="M662.924 343.448L665.917 356.123L678.425 359.747L667.297 366.509L667.715 379.525L657.845 371.032L645.596 375.452L650.624 363.44L642.633 353.156L655.613 354.224L662.924 343.448Z" fill="white"/>
</g>
</svg>
