<svg width="234" height="234" viewBox="0 0 234 234" fill="none" xmlns="http://www.w3.org/2000/svg">
<circle cx="117" cy="117" r="113.5" fill="black" stroke="white" stroke-width="7"/>
<path d="M66.1914 117.154L82.0068 110.235V92.4425L99.7991 102.327L115.614 95.4079L82.0068 75.6387L66.1914 83.5464V117.154Z" fill="white"/>
<path d="M167.999 83.5442L154.161 76.625L136.368 86.5096L148.23 92.4404L65.1992 130.99V150.76L78.0492 156.69L96.83 148.783L84.9685 141.863L167.999 104.302V83.5442Z" fill="white"/>
<path d="M167.997 148.785V117.154L153.17 123.085V140.877L134.39 131.981L118.574 140.877L153.17 157.681L167.997 148.785Z" fill="white"/>
<path d="M117.591 158.671L108.694 154.717L91.8906 162.624L117.591 176.463L143.291 162.624L128.464 154.717L117.591 158.671Z" fill="white"/>
<path d="M117.591 57.8457L91.8906 70.6957L107.706 80.5803L117.591 75.638L125.498 80.5803L143.291 72.6726L117.591 57.8457Z" fill="white"/>
</svg>
