<svg width="234" height="234" viewBox="0 0 234 234" fill="none" xmlns="http://www.w3.org/2000/svg">
<circle cx="117" cy="117" r="113.5" fill="black" stroke="white" stroke-width="7"/>
<path d="M161.797 76.3287C161.428 75.2409 160.988 74.9547 160.3 74.6827C158.795 74.1245 156.245 74.969 156.245 74.969C156.245 74.969 65.9987 107.432 60.8429 111.024C59.7328 111.797 59.3609 112.255 59.1764 112.785C58.2851 115.333 61.0618 116.463 61.0618 116.463L84.3227 124.049C84.3227 124.049 85.1896 124.178 85.4986 123.978C90.7903 120.629 138.738 90.3415 141.504 89.3252C141.94 89.1964 142.263 89.3396 142.177 89.6401C141.07 93.5334 99.4251 130.562 99.4251 130.562C99.4251 130.562 99.2663 130.762 99.1662 130.991L99.1118 130.963L96.9416 154.05C96.9416 154.05 96.0318 161.121 103.1 154.05C108.087 149.055 112.912 144.875 115.327 142.857C123.325 148.382 131.933 154.494 135.648 157.686C137.514 159.289 139.074 159.546 140.359 159.504C143.885 159.375 144.87 155.496 144.87 155.496C144.87 155.496 161.315 89.268 161.865 80.3937C161.919 79.5206 161.993 78.9767 161.999 78.3755C162.009 77.5454 161.932 76.7152 161.797 76.3287Z" fill="white"/>
</svg>
