<svg width="234" height="234" viewBox="0 0 234 234" fill="none" xmlns="http://www.w3.org/2000/svg">
<circle cx="117" cy="117" r="113.5" fill="black" stroke="white" stroke-width="7"/>
<path d="M143.233 164.805L114.767 123.446L110.713 117.559L77.6817 69.5667H91.8904L118.604 108.379L122.657 114.266L157.442 164.805H143.233ZM163.316 160.765L127.463 108.677L123.409 102.786L97.7618 65.5259L95.6362 62.438H64.1211L71.8071 73.6067L105.908 123.154L109.962 129.039L137.361 168.849L139.487 171.934H171.002L163.316 160.765Z" fill="white"/>
<path d="M110.715 117.559L114.769 123.446L109.964 129.039L73.0923 171.934H64L105.91 123.154L110.715 117.559Z" fill="white"/>
<path d="M167.21 62.4411L127.465 108.68L122.659 114.27L118.605 108.382L123.411 102.789L150.334 71.4524L158.118 62.4411H167.21Z" fill="white"/>
</svg>
